<?xml version="1.0" encoding="utf-8"?>
<!-- Uploaded to: SVG Repo, www.svgrepo.com, Generator: SVG Repo Mixer Tools -->
<svg width="800px" height="800px" viewBox="0 0 1024 1024" class="icon"  version="1.1" xmlns="http://www.w3.org/2000/svg"><path d="M511.583279 140.670581c-220.855136 0-399.878414 179.056042-399.878414 399.881485h799.759899c0-220.825444-179.022254-399.881485-399.881485-399.881485z" fill="#F4CE73" /><path d="M517.204409 863.975939c-27.038764 0-47.64548-6.691091-61.238581-19.878734-9.468891-9.192442-16.319708-21.012175-20.334363-35.140768-0.957333-3.442302-0.794535-6.106452 0.538564-7.862416 1.526613-2.011935 4.772329-3.37575 8.068216-3.375749 3.785304 0 6.219079 1.492825 7.226583 4.383253 4.433423 12.471947 10.313597 22.087254 17.992737 29.523733 12.279457 11.757275 28.485514 17.670213 48.26493 17.670213 20.656886 0 36.863967-5.424544 48.180972-16.109812 11.660006-10.815301 17.620043-24.035708 17.620042-39.105252 0-10.326907-2.873022-19.389316-8.523845-26.926136-5.278129-7.177436-13.542931-12.991057-25.202937-17.633353-6.302014-2.404083-20.234022-6.691091-41.831859-12.831331-30.062297-8.281185-43.57144-17.278065-49.645128-23.383493-12.212904-12.309149-18.155535-26.955829-18.155534-44.722287 0-11.400963 2.810565-21.760635 8.590397-31.732254 5.488025-9.548755 13.316653-16.66271 23.985538-21.827188 11.137825-5.357992 25.219319-8.084599 41.799095-8.084598 26.583135 0 46.461868 6.235462 59.063848 18.544611 7.971971 7.792791 12.714608 18.804678 17.244277 30.33465 1.803062 4.546051 0.668597 6.236486 0.292831 6.78836-1.380197 2.011935-5.161406 4.060729-9.727934 4.060729-4.236837 0-6.93068-1.526613-8.00576-4.550146-3.701345-10.100629-7.971971-20.427536-16.516294-27.930568-10.084247-8.963092-24.488265-13.542931-42.740045-13.542931-18.448366 0-33.550674 4.609532-44.868703 13.739517-9.288688 7.695522-14.111188 18.12277-14.111187 30.301886 0 11.334411 4.446734 21.467804 12.877406 29.230902 5.71328 5.424544 17.097861 13.05761 53.200057 22.639129 22.735374 6.0399 39.574192 12.242597 50.047515 18.445294 9.128962 5.394852 16.159982 12.668533 21.454493 22.250052 5.195194 9.548755 7.859344 21.923433 7.859344 36.633593 0 13.28696-3.199642 25.399523-9.791416 37.026765-6.26925 11.075368-14.87603 19.066793-26.340473 24.424784-12.245668 5.749116-28.12613 8.639544-47.272786 8.639545zM759.756699 863.975939c-27.315213 0-47.340362-6.495529-61.208888-19.878734-9.514966-9.255923-16.353496-21.078727-20.281121-35.077287-0.991121-3.505783-0.815013-6.168909 0.51911-7.925897 1.526613-2.011935 4.772329-3.37575 8.054906-3.375749 3.831379 0 6.298943 1.492825 7.340234 4.479498 4.333083 12.442254 10.213256 22.087254 17.959972 29.493017 12.309149 11.690723 28.515206 17.60366 48.198378 17.60366 20.560641 0 36.784104-5.390756 48.21476-16.013566 11.773657-11.041579 17.720383-24.195434 17.720383-39.201498 0-10.263426-2.8935-19.322764-8.590398-26.926136-5.294511-7.2102-13.609484-13.023821-25.303278-17.633353-6.285632-2.404083-20.137777-6.691091-41.882029-12.831331-29.975267-8.281185-43.53458-17.310829-49.658438-23.417281-12.133041-12.275361-18.059289-26.923065-18.059289-44.689523 0-11.497208 2.794183-21.827187 8.557633-31.668773 5.57096-9.645 13.399587-16.758955 23.969156-21.890668 11.174684-5.357992 25.285872-8.084599 41.849264-8.084599 26.633305 0 46.495656 6.235462 59.030061 18.511847 8.071288 7.859344 12.814949 18.837442 17.344617 30.368438 1.785656 4.546051 0.634809 6.202697 0.259043 6.754572-1.606476 2.371318-5.700993 4.094517-9.727934 4.094517-4.25322 0-6.964468-1.559377-8.051834-4.579839-3.41261-9.519062-7.762075-20.234022-16.306398-27.837394-10.263426-9.026573-24.714544-13.606412-43.000112-13.606412-18.547683 0-33.633609 4.64332-44.83901 13.835762-9.222135 7.633065-14.078423 18.056218-14.078423 30.205641 0 11.171613 4.383253 21.242549 12.664437 29.100869 5.507479 5.164478 16.988305 13.087302 53.413026 22.768138 22.769162 6.0399 39.624362 12.242597 50.114067 18.445294 9.242613 5.491097 16.223463 12.735086 21.322412 22.120019 5.328299 9.611212 7.992449 21.954149 7.992449 36.763626 0 13.253172-3.182236 25.399523-9.761723 37.059529-6.26925 11.011887-14.923129 19.034028-26.403954 24.392021-12.212904 5.751164-28.14456 8.641592-47.371079 8.641592z" fill="#FFFFFF" /><path d="M927.282768 540.551042h-49.887788c0-201.69517-164.149295-365.841394-365.777913-365.841393-201.758651 0-365.841394 164.146224-365.841394 365.841393h-49.887788c0-229.236661 186.492521-415.729182 415.729182-415.729182 229.169085 0.001024 415.665701 186.493545 415.665701 415.729182z" fill="#27323A" /><path d="M810.87827 540.551042c0-164.995025-134.267202-299.262227-299.261203-299.262226-165.057482 0-299.324684 134.267202-299.324684 299.262226h49.887789c0-137.517014 111.857424-249.374438 249.436895-249.374438 137.450462 0 249.374438 111.857424 249.374438 249.374438h49.886765z" fill="#27323A" /><path d="M694.474795 540.551042c0-100.815845-82.041883-182.921209-182.857728-182.921209-100.879326 0-182.921209 82.10434-182.921209 182.921209h49.887789c0-73.337834 59.695586-133.03342 133.03342-133.03342s132.969939 59.695586 132.969939 133.03342h49.887789z" fill="#27323A" /><path d="M578.133777 540.551042c0-36.704241-29.816565-66.51671-66.51671-66.51671-36.766698 0-66.51671 29.812469-66.51671 66.51671h133.03342z" fill="#27323A" /><path d="M517.204409 897.233782c-35.972163 0-64.374742-9.841586-84.396819-29.230902-13.722111-13.349417-23.529909-30.14216-29.167422-49.954341-3.847761-13.705729-1.702721-26.859584 6.026589-37.026765 7.859344-10.359672 20.78692-16.562369 34.572512-16.562369 17.862703 0 33.032588 10.522469 38.666006 26.793031 2.534116 7.14672 5.813621 12.735086 9.681859 16.469195 5.826931 5.584271 14.062041 8.314973 25.136385 8.314973 11.886285 0 20.414226-2.371318 25.349353-7.01771 5.00168-4.676084 7.193818-9.222135 7.193818-14.939511 0-3.961412-1.004432-5.813621-1.865519-6.983922-0.634809-0.841634-3.036844-3.538548-10.915641-6.655254-5.52079-2.14504-18.478058-6.042971-38.583071-11.726559-30.012127-8.281185-51.025325-18.741197-64.161774-31.957509-18.482154-18.644952-27.834323-41.572816-27.834323-68.173356 0-17.180796 4.399635-33.488217 13.103685-48.427728 8.690739-15.198554 21.581455-27.022381 38.244165-35.077288 15.754523-7.566513 34.671829-11.397891 56.286047-11.397891 35.563633 0 63.253588 9.418721 82.284545 27.963332 12.701297 12.471947 19.309453 27.608044 24.976658 42.025373 5.310893 13.446686 4.190763 26.829891-3.165853 37.645192-7.812245 11.464444-22.069848 18.611164-37.222327 18.611163-2.338554 0-4.625914-0.196586-6.850817-0.489417 5.115331 2.241285 9.645 4.546051 13.655559 6.917369 14.17774 8.381525 25.495768 20.105012 33.633609 34.784457 7.988353 14.713232 12.016318 32.446926 12.016318 52.744428 0 18.903995-4.742637 36.896732-14.111188 53.396644-9.648071 17.084551-23.516598 29.945574-41.216504 38.197066-16.629945 7.793815-37.286832 11.758299-61.33585 11.758299z m-3.053226-243.331467c-10.815301 0-18.658262 2.078487-23.985538 6.395188-0.908186 0.74846-1.73651 1.62593-1.736509 4.386324 0 2.045723 0.565185 3.312269 2.192138 4.806118 1.233782 1.170301 8.201321 6.691091 39.168734 14.909818 9.921449 2.630361 18.837442 5.324204 26.812485 8.051834-6.612251-4.609532-11.677412-11.171613-14.537124-19.226518-2.15835-5.877102-4.579839-11.79004-7.127266-14.031325-4.922841-4.383253-14.015966-5.291439-20.78692-5.291439z" fill="#79CCBF" /><path d="M617.239029 793.883821c0-17.733694-3.378822-32.606652-9.937831-44.689523-6.691091-12.082871-15.784216-21.565073-27.544563-28.515206-11.757275-6.951157-29.812469-13.705729-54.237253-20.201258-24.488265-6.4986-39.883405-12.797543-46.185419-18.773961-5.065161-4.676084-7.532724-10.39346-7.532725-17.017998 0-7.2102 2.661078-12.991057 7.921801-17.344617 8.381525-6.754571 19.7487-10.066841 34.429168-10.066841 14.161358 0 24.684851 3.116707 31.765018 9.418721 5.324204 4.676084 8.507463 11.949766 11.819732 20.979411 10.070936 28.386197 61.777145 15.461692 48.590526-17.926185-5.390756-13.705729-10.978098-26.244229-21.112515-36.182059-15.850769-15.461692-39.427776-23.254483-70.673685-23.254484-19.163038 0-35.532916 3.245716-49.043083 9.741245-13.575696 6.562081-23.969155 15.980802-31.112803 28.45275-7.2102 12.405395-10.849089 25.722047-10.849089 40.079991 0 22.149711 7.662758 40.987153 22.994417 56.445774 10.849089 10.915641 29.816565 20.204329 56.901403 27.674596 20.853472 5.909866 34.299134 10.001312 40.209 12.275361 8.640568 3.442302 14.616987 7.470267 18.05929 12.146352 3.505783 4.679156 5.195194 10.263426 5.195194 16.955541 0 10.329979-4.090422 19.293071-12.405395 27.022381-8.184939 7.72931-20.463372 11.563761-36.766698 11.563761-15.458621 0-27.670501-4.35356-36.700146-12.994128-5.846385-5.650823-10.39346-13.316653-13.835762-22.994417-9.418721-27.214872-57.034508-17.017998-47.549234 16.825507 5.00168 17.60366 13.509143 31.634985 24.747308 42.547555 16.888988 16.369879 41.250292 24.554818 72.818724 24.554818 21.631625 0 39.753372-3.378822 54.303806-10.199946 14.616987-6.818052 25.852081-17.278065 33.776953-31.309389 7.992449-14.097877 11.953861-29.10394 11.953861-45.213752z" fill="#27323A" /><path d="M759.756699 897.233782c-35.859536 0-64.228326-9.841586-84.29955-29.230902-13.868527-13.446686-23.676324-30.272194-29.21452-50.016798-3.834451-13.676036-1.689411-26.796103 6.039899-36.992977 7.841938-10.363767 20.769514-16.532676 34.559202-16.532677 17.829939 0 33.028493 10.489705 38.713104 26.696786 2.600669 7.439551 5.717376 12.797543 9.581519 16.499912 5.912938 5.62113 14.17774 8.381525 25.202937 8.381526 11.89038 0 20.494089-2.404083 25.578703-7.113956 4.885981-4.579839 7.097573-9.192442 7.097573-14.843265 0-3.897931-1.041291-5.779833-1.936167-6.983922-0.631737-0.841634-3.036844-3.538548-10.945334-6.655255-5.537172-2.14504-18.445294-6.042971-38.666005-11.726558-29.942502-8.281185-50.958773-18.741197-64.145392-31.924745-18.478058-18.707409-27.800534-41.639368-27.800534-68.206121 0-17.310829 4.417041-33.617227 13.137472-48.490185 8.770602-15.168861 21.614219-26.992689 38.130514-35.01483 15.850769-7.566513 34.784456-11.397891 56.365911-11.397891 35.646568 0 63.333451 9.418721 82.317308 27.99712 12.71768 12.405395 19.326859 27.541491 25.010447 41.991585 5.294511 13.47945 4.156974 26.829891-3.216024 37.645192-7.812245 11.464444-22.069848 18.611164-37.205945 18.611163-2.321148 0-4.59315-0.162798-6.80167-0.489417 5.097925 2.241285 9.628618 4.546051 13.639176 6.917369 14.404019 8.574016 25.708737 20.300574 33.630538 34.91449 7.958661 14.357944 12.01939 32.090614 12.019389 52.614395 0 18.87123-4.708849 36.800486-14.014942 53.362855-9.744317 17.118339-23.613867 29.945574-41.279984 38.230855-16.661686 7.791767-37.351337 11.756251-61.497625 11.756251z m-3.053226-243.331467c-10.655575 0-18.661334 2.10818-23.759259 6.298942-1.233782 1.041291-1.899307 2.015006-1.899307 4.483594 0 1.689411 0.389076 3.149471 2.272002 4.935128 1.057674 1.007503 8.121458 6.562081 39.08887 14.779784 9.92452 2.630361 18.837442 5.291439 26.812485 8.051834-6.578463-4.609532-11.660006-11.137825-14.516647-19.193754-2.048795-5.683587-4.499976-11.85352-7.08119-14.128593-4.889052-4.318748-14.081495-5.226935-20.916954-5.226935z" fill="#79CCBF" /><path d="M859.921353 793.883821c0-17.733694-3.312269-32.606652-10.004384-44.689523-6.562081-12.082871-15.784216-21.565073-27.47801-28.515206-11.757275-6.951157-29.815541-13.705729-54.303806-20.201258-24.488265-6.4986-39.883405-12.797543-46.2489-18.773961-4.939223-4.676084-7.470267-10.39346-7.470268-17.017998 0-7.2102 2.727631-12.991057 7.988354-17.344617 8.251492-6.754571 19.7487-10.066841 34.299134-10.066841 14.224839 0 24.813861 3.116707 31.957509 9.418721 5.261747 4.676084 8.443982 11.949766 11.693794 20.979411 10.130321 28.386197 61.774073 15.461692 48.649911-17.926185-5.390756-13.705729-10.975027-26.244229-21.175996-36.182059-15.784216-15.461692-39.364295-23.254483-70.673684-23.254484-19.096485 0-35.529845 3.245716-49.105541 9.741245-13.513239 6.562081-23.839122 15.980802-31.050346 28.45275-7.276753 12.405395-10.849089 25.722047-10.849089 40.079991 0 22.149711 7.665829 40.987153 22.93196 56.445774 10.91257 10.915641 29.879022 20.204329 56.901403 27.674596 20.982482 5.909866 34.362615 10.001312 40.272481 12.275361 8.704049 3.442302 14.680468 7.470267 18.125842 12.146352 3.505783 4.679156 5.261747 10.263426 5.261747 16.955541 0 10.329979-4.156974 19.293071-12.408466 27.022381-8.314973 7.72931-20.590334 11.563761-36.896732 11.563761-15.39514 0-27.603948-4.35356-36.700145-12.994128-5.909866-5.650823-10.39346-13.316653-13.76921-22.994417-9.551826-27.214872-57.097989-17.017998-47.615787 16.825507 4.939223 17.60366 13.513239 31.634985 24.75038 42.547555 16.951445 16.369879 41.180668 24.554818 72.752171 24.554818 21.760635 0 39.883405-3.378822 54.43384-10.199946 14.550434-6.818052 25.852081-17.278065 33.843505-31.309389 7.923849-14.097877 11.888333-29.10394 11.888333-45.213752z" fill="#27323A" /><path d="M194.98053 898.045723c-23.82274 0-41.799095-16.1436-41.799094-37.578639V613.174204c0-24.328539 20.476683-34.103572 34.248964-34.721999l88.780072-0.033788c29.263666 0 50.423281 2.923193 64.697266 8.899611 15.508791 6.365495 28.046267 17.862703 37.155775 34.069785 8.653879 15.136097 13.05761 32.80631 13.057609 52.388116 0 24.943894-6.821124 46.022621-20.26781 62.618779-7.406786 9.258995-16.775337 16.66271-28.013502 22.149711 1.932072 2.048795 3.785304 4.094517 5.52079 6.205769 7.892108 9.452509 17.862703 25.170173 30.481066 48.034556 0.405459 0.778153 10.263426 20.982482 13.593101 27.218968 6.056282 11.430656 5.52079 25.170173-1.443678 36.763626-7.53682 12.5385-21.192378 20.334363-35.646568 20.334363-10.084247 0-29.3937-3.930696-45.55061-30.205641-7.326923-11.889356-26.180748-44.074168-26.180748-44.074168-12.648055-21.045963-21.092038-34.069784-25.007375-38.619931-3.019438-3.572336-5.909866-5.909866-8.736813-7.014638-1.153919-0.455629-4.726255-1.46006-13.090374-1.819444v85.095109c0.001024 21.439135-17.974307 37.582735-41.798071 37.582735z" fill="#79CCBF" /><path d="M377.738941 847.798551c-3.37575-6.365495-13.446686-26.955829-13.446686-26.955829-12.016318-21.760635-21.631625-36.960212-28.711792-45.470748-7.077095-8.510535-16.10674-16.369879-27.022382-23.513526 21.957221-3.572336 38.39058-12.212904 49.368679-25.918633 11.108132-13.705729 16.566465-31.116899 16.566465-52.161838 0-16.628922-3.575408-31.37287-10.915642-44.236966-7.273681-12.924504-16.951445-21.890668-29.100868-26.892348-12.079799-5.065161-31.50188-7.599277-58.265219-7.599277H188.193194s-18.381813 0.844705-18.381813 18.125842v247.291856c0 27.930568 50.339322 27.930568 50.339322 0v-101.854065h10.329979c11.627242 0 20.137777 1.041291 25.529557 3.119779 5.390756 2.141968 10.455917 5.973347 15.198554 11.627242 4.87267 5.650823 13.705729 19.356552 26.763338 41.050634 0 0 18.707409 31.961604 25.98109 43.781336 27.41453 44.562561 65.80511 12.21188 53.78572-10.393459z" fill="#27323A" /><path d="M257.633097 713.727934h-37.482394V642.665174h39.494329c20.593406 0 32.935319 0.322524 37.026765 0.974738 8.251492 1.492825 14.550434 5.131713 19.096485 10.975027 4.483594 5.783928 6.691091 13.383205 6.691091 22.801926 0 8.443982-1.689411 15.39514-5.131714 20.982482-3.37575 5.650823-8.118387 9.611212-14.161358 11.886285-6.038876 2.270978-21.174972 3.442302-45.533204 3.442302z" fill="#79CCBF" /></svg>